<?xml version="1.0" encoding="UTF-8" standalone="no"?>
<!DOCTYPE svg PUBLIC "-//W3C//DTD SVG 1.1//EN" "http://www.w3.org/Graphics/SVG/1.1/DTD/svg11.dtd">
<svg width="100%" height="100%" viewBox="0 0 1933 503" version="1.1" xmlns="http://www.w3.org/2000/svg" xmlns:xlink="http://www.w3.org/1999/xlink" xml:space="preserve" xmlns:serif="http://www.serif.com/" style="fill-rule:evenodd;clip-rule:evenodd;stroke-linejoin:round;stroke-miterlimit:2;">
    <rect id="Artboard1" x="0" y="0" width="1933" height="503" style="fill:none;"/>
    <g id="Artboard11" serif:id="Artboard1">
        <g>
            <g transform="matrix(1,0,0,1,-26.3184,0)">
                <path d="M321.9,343.871C323.434,341.955 323.972,339.427 323.353,337.052C322.733,334.677 321.028,332.734 318.754,331.812L276.124,314.516C274.251,313.756 272.155,313.756 270.281,314.515L227.823,331.732C225.552,332.653 223.848,334.591 223.226,336.962C222.603,339.333 223.136,341.858 224.662,343.776L267.12,397.119C268.593,398.969 270.827,400.048 273.191,400.051C275.556,400.054 277.793,398.981 279.27,397.135L321.9,343.871ZM273.212,273.032L174.555,314.335C172.505,315.194 170.185,315.133 168.183,314.17C166.18,313.206 164.686,311.431 164.077,309.293L149.035,256.437C147.96,252.659 149.872,248.672 153.492,247.147L270.183,197.956C272.112,197.143 274.288,197.142 276.218,197.955L393.268,247.232C396.885,248.755 398.8,252.736 397.731,256.513L382.817,309.201C382.212,311.338 380.722,313.115 378.722,314.082C376.723,315.049 374.405,315.114 372.354,314.261L273.212,273.032ZM273.221,156.507L111.713,219.976C109.671,220.779 107.386,220.681 105.42,219.707C103.454,218.734 101.992,216.975 101.393,214.864L85.615,159.264C84.516,155.39 86.557,151.318 90.318,149.881L270.427,81.049C272.214,80.366 274.191,80.366 275.978,81.049L456.005,149.884C459.764,151.321 461.804,155.389 460.708,159.261L445.198,214.068C444.602,216.173 443.145,217.93 441.187,218.907C439.228,219.883 436.949,219.989 434.908,219.198L273.221,156.507Z" style="fill:white;"/>
            </g>
            <g transform="matrix(1,0,0,1,-26.3184,0)">
                <path d="M440.946,399.37L479.289,399.37C486.261,399.37 490.095,395.187 491.838,391.004L504.387,363.118L599.2,363.118L611.748,390.656C614.885,397.279 617.674,399.37 623.948,399.37L662.64,399.37C667.869,399.37 670.658,394.839 668.566,390.307L559.462,155.716C558.416,153.624 555.976,151.881 553.536,151.881L550.05,151.881C547.61,151.881 545.17,153.624 544.124,155.716L435.02,390.307C432.929,394.839 435.717,399.37 440.946,399.37ZM525.301,315.712L551.445,258.197L551.793,258.197L578.285,315.712L525.301,315.712Z" style="fill:white;fill-rule:nonzero;"/>
            </g>
            <g transform="matrix(1,0,0,1,-26.3184,0)">
                <path d="M689.733,392.601C689.036,397.132 692.173,400.27 696.356,400.27L737.488,400.27C740.974,400.27 743.762,397.481 744.111,394.692L759.448,286.982L760.146,286.982L819.055,399.921C820.101,402.012 822.889,403.755 824.981,403.755L831.255,403.755C832.998,403.755 836.135,402.012 837.181,399.921L895.742,286.982L896.439,286.982L912.125,394.692C912.473,397.481 915.61,400.27 918.748,400.27L959.88,400.27C964.063,400.27 967.2,397.132 966.503,392.601L927.113,158.358C926.765,155.221 923.628,152.781 920.839,152.781L915.262,152.781C913.519,152.781 910.382,154.175 909.336,156.266L828.466,306.851L827.769,306.851L746.9,156.266C745.855,154.175 742.718,152.781 740.975,152.781L735.398,152.781C732.609,152.781 729.472,155.221 729.123,158.358L689.734,392.601L689.733,392.601Z" style="fill:white;fill-rule:nonzero;"/>
            </g>
            <g transform="matrix(1,0,0,1,-26.3184,0)">
                <path d="M990.206,393.647C990.206,397.132 992.994,400.27 996.829,400.27L1037.96,400.27C1041.45,400.27 1044.58,397.132 1044.58,393.647L1044.58,311.731L1081.18,311.731C1123.71,311.731 1158.92,276.525 1158.92,233.302C1158.92,191.124 1123.71,156.266 1080.84,156.266L996.829,156.266C992.994,156.266 990.206,159.403 990.206,162.889L990.206,393.647ZM1044.58,260.839L1044.58,207.507L1077.7,207.507C1092.69,207.507 1105.24,218.661 1105.24,233.302C1105.24,248.988 1092.69,260.839 1077.7,260.839L1044.58,260.839Z" style="fill:white;fill-rule:nonzero;"/>
            </g>
            <g transform="matrix(1,0,0,1,-26.3184,0)">
                <path d="M1180.53,393.647C1180.53,397.132 1183.32,400.27 1187.15,400.27L1318.22,400.27C1322.05,400.27 1324.84,397.132 1324.84,393.647L1324.84,355.652C1324.84,352.166 1322.05,349.029 1318.22,349.029L1235.26,349.029L1235.26,162.889C1235.26,159.403 1232.12,156.266 1228.63,156.266L1187.15,156.266C1183.32,156.266 1180.53,159.403 1180.53,162.889L1180.53,393.647Z" style="fill:white;fill-rule:nonzero;"/>
            </g>
            <g transform="matrix(1,0,0,1,-26.3184,0)">
                <path d="M1352.14,393.565C1352.14,397.094 1355.32,400.27 1358.84,400.27L1401.19,400.27C1404.72,400.27 1407.89,397.094 1407.89,393.565L1407.89,159.959C1407.89,156.431 1404.72,153.255 1401.19,153.255L1358.84,153.255C1355.32,153.255 1352.14,156.431 1352.14,159.959L1352.14,393.565Z" style="fill:white;fill-rule:nonzero;"/>
            </g>
            <g transform="matrix(1,0,0,1,-26.3184,0)">
                <path d="M1443.56,393.647C1443.56,397.132 1446.35,400.27 1450.18,400.27L1491.31,400.27C1494.8,400.27 1497.93,397.132 1497.93,393.647L1497.93,308.943L1577.41,308.943C1580.9,308.943 1584.03,305.805 1584.03,302.32L1584.03,264.325C1584.03,260.839 1580.9,257.702 1577.41,257.702L1497.93,257.702L1497.93,207.507L1594.49,207.507C1598.33,207.507 1601.11,204.37 1601.11,200.884L1601.11,162.889C1601.11,159.403 1598.33,156.266 1594.49,156.266L1450.18,156.266C1446.35,156.266 1443.56,159.403 1443.56,162.889L1443.56,393.647L1443.56,393.647Z" style="fill:white;fill-rule:nonzero;"/>
            </g>
            <g transform="matrix(1,0,0,1,-26.3184,0)">
                <path d="M1698.71,393.647C1698.71,397.132 1701.5,400.27 1705.34,400.27L1746.82,400.27C1750.3,400.27 1753.44,397.132 1753.44,393.647L1753.44,282.451L1831.52,166.375C1834.31,161.843 1831.52,156.266 1825.94,156.266L1780.63,156.266C1777.49,156.266 1776.1,158.009 1775.05,159.403L1726.6,230.862L1678.15,159.403C1677.1,158.009 1675.36,156.266 1672.57,156.266L1627.26,156.266C1621.68,156.266 1618.89,161.843 1621.68,166.375L1698.71,282.799C1698.72,282.799 1698.72,393.647 1698.72,393.647L1698.71,393.647Z" style="fill:white;fill-rule:nonzero;"/>
            </g>
        </g>
        <g transform="matrix(81.9444,0,0,81.9444,1814.31,214.181)">
            <path d="M0.035,-0.35C0.035,-0.152 0.196,0.01 0.394,0.01C0.592,0.01 0.754,-0.152 0.754,-0.35C0.754,-0.548 0.592,-0.71 0.394,-0.71C0.196,-0.71 0.035,-0.548 0.035,-0.35ZM0.122,-0.35C0.122,-0.501 0.244,-0.622 0.394,-0.622C0.545,-0.622 0.666,-0.501 0.666,-0.35C0.666,-0.2 0.545,-0.077 0.394,-0.077C0.244,-0.077 0.122,-0.2 0.122,-0.35ZM0.256,-0.187C0.256,-0.177 0.264,-0.168 0.275,-0.168L0.335,-0.168C0.346,-0.168 0.354,-0.177 0.354,-0.187L0.354,-0.288L0.393,-0.288L0.43,-0.182C0.432,-0.175 0.44,-0.168 0.448,-0.168L0.516,-0.168C0.53,-0.168 0.539,-0.182 0.533,-0.195L0.493,-0.292C0.526,-0.311 0.56,-0.342 0.56,-0.404C0.56,-0.484 0.499,-0.534 0.437,-0.534L0.275,-0.534C0.264,-0.534 0.256,-0.525 0.256,-0.515L0.256,-0.187ZM0.351,-0.369L0.351,-0.435L0.42,-0.435C0.437,-0.435 0.452,-0.421 0.452,-0.402C0.452,-0.384 0.437,-0.369 0.42,-0.369L0.351,-0.369Z" style="fill:white;fill-rule:nonzero;"/>
        </g>
    </g>
</svg>
