<?xml version="1.0" encoding="UTF-8" standalone="no"?>
<!DOCTYPE svg PUBLIC "-//W3C//DTD SVG 1.1//EN" "http://www.w3.org/Graphics/SVG/1.1/DTD/svg11.dtd">
<svg width="100%" height="100%" viewBox="0 0 2070 383" version="1.1" xmlns="http://www.w3.org/2000/svg" xmlns:xlink="http://www.w3.org/1999/xlink" xml:space="preserve" xmlns:serif="http://www.serif.com/" style="fill-rule:evenodd;clip-rule:evenodd;stroke-linejoin:round;stroke-miterlimit:2;">
    <g id="Artboard1" transform="matrix(1,0,0,0.761431,0,0)">
        <rect x="0" y="0" width="2070" height="503" style="fill:none;"/>
        <g transform="matrix(1.10322,0,0,1.44888,-79.6043,-98.0363)">
            <path d="M321.428,343.689C322.962,341.772 323.501,339.244 322.881,336.869C322.261,334.495 320.556,332.552 318.282,331.629L275.652,314.333C273.779,313.573 271.683,313.573 269.809,314.333L227.351,331.549C225.08,332.47 223.376,334.409 222.754,336.779C222.132,339.15 222.664,341.675 224.191,343.593L266.649,396.936C268.121,398.786 270.355,399.865 272.72,399.868C275.084,399.872 277.321,398.798 278.799,396.952L321.428,343.689ZM272.74,272.849L174.083,314.153C172.033,315.011 169.714,314.951 167.711,313.987C165.708,313.023 164.214,311.248 163.606,309.111L148.563,256.254C147.488,252.476 149.4,248.49 153.02,246.964L269.711,197.774C271.64,196.96 273.816,196.96 275.746,197.772L392.796,247.05C396.414,248.573 398.328,252.554 397.259,256.33L382.346,309.018C381.741,311.156 380.25,312.932 378.25,313.899C376.251,314.866 373.933,314.931 371.882,314.078L272.74,272.849ZM272.749,156.324L111.241,219.794C109.2,220.596 106.914,220.499 104.948,219.525C102.983,218.551 101.52,216.792 100.921,214.682L85.143,159.081C84.044,155.208 86.085,151.136 89.846,149.698L269.955,80.866C271.743,80.183 273.719,80.183 275.506,80.866L455.534,149.701C459.292,151.138 461.332,155.206 460.237,159.077L444.726,213.884C444.13,215.99 442.674,217.747 440.715,218.723C438.757,219.7 436.477,219.806 434.437,219.014L272.749,156.323L272.749,156.324Z" style="fill:white;"/>
            <path d="M440.474,399.188L478.818,399.188C485.789,399.188 489.623,395.005 491.366,390.822L503.915,362.936L598.728,362.936L611.276,390.473C614.414,397.096 617.202,399.188 623.477,399.188L662.169,399.188C667.397,399.188 670.186,394.656 668.094,390.125L558.99,155.533C557.944,153.442 555.504,151.699 553.064,151.699L549.579,151.699C547.138,151.699 544.698,153.442 543.653,155.533L434.548,390.125C432.457,394.656 435.246,399.188 440.474,399.188ZM524.83,315.529L550.973,258.014L551.321,258.014L577.813,315.529L524.83,315.529Z" style="fill:white;fill-rule:nonzero;"/>
            <path d="M689.261,392.418C688.564,396.95 691.701,400.087 695.884,400.087L737.016,400.087C740.502,400.087 743.291,397.298 743.639,394.51L758.977,286.8L759.674,286.8L818.583,399.738C819.629,401.83 822.417,403.573 824.509,403.573L830.783,403.573C832.526,403.573 835.663,401.83 836.709,399.738L895.27,286.8L895.967,286.8L911.653,394.51C912.002,397.298 915.139,400.087 918.276,400.087L959.408,400.087C963.591,400.087 966.728,396.95 966.031,392.418L926.642,158.175C926.293,155.038 923.156,152.598 920.367,152.598L914.79,152.598C913.047,152.598 909.91,153.992 908.864,156.084C908.865,156.084 827.996,306.669 827.996,306.669L827.299,306.669L746.429,156.084C745.383,153.992 742.246,152.598 740.503,152.598L734.926,152.598C732.137,152.598 729,155.038 728.651,158.175L689.262,392.418L689.261,392.418Z" style="fill:white;fill-rule:nonzero;"/>
            <path d="M989.734,393.464C989.734,396.95 992.523,400.087 996.357,400.087L1037.49,400.087C1040.97,400.087 1044.11,396.95 1044.11,393.464L1044.11,311.549L1080.71,311.549C1123.24,311.549 1158.44,276.342 1158.44,233.119C1158.44,190.941 1123.24,156.084 1080.36,156.084L996.357,156.084C992.523,156.084 989.734,159.221 989.734,162.707L989.734,393.464ZM1044.11,260.657L1044.11,207.324L1077.23,207.324C1092.21,207.324 1104.76,218.479 1104.76,233.119C1104.76,248.805 1092.21,260.657 1077.23,260.657L1044.11,260.657Z" style="fill:white;fill-rule:nonzero;"/>
            <path d="M1180.06,393.464C1180.06,396.95 1182.85,400.087 1186.68,400.087L1317.74,400.087C1321.58,400.087 1324.37,396.95 1324.37,393.464L1324.37,355.469C1324.37,351.984 1321.58,348.846 1317.74,348.846L1234.78,348.846L1234.78,162.707C1234.78,159.221 1231.65,156.084 1228.16,156.084L1186.68,156.084C1182.85,156.084 1180.06,159.221 1180.06,162.707L1180.06,393.464Z" style="fill:white;fill-rule:nonzero;"/>
            <path d="M1351.67,393.382C1351.67,396.911 1354.84,400.087 1358.37,400.087L1400.72,400.087C1404.25,400.087 1407.42,396.911 1407.42,393.382L1407.42,159.777C1407.42,156.248 1404.25,153.072 1400.72,153.072L1358.37,153.072C1354.84,153.072 1351.67,156.248 1351.67,159.777L1351.67,393.382Z" style="fill:white;fill-rule:nonzero;"/>
            <path d="M1443.09,393.464C1443.09,396.95 1445.87,400.087 1449.71,400.087L1490.84,400.087C1494.33,400.087 1497.46,396.95 1497.46,393.464L1497.46,308.76L1576.94,308.76C1580.42,308.76 1583.56,305.623 1583.56,302.137L1583.56,264.142C1583.56,260.657 1580.42,257.519 1576.94,257.519L1497.46,257.519C1497.46,257.519 1497.46,207.324 1497.46,207.324L1594.02,207.324C1597.85,207.324 1600.64,204.187 1600.64,200.701L1600.64,162.707C1600.64,159.221 1597.85,156.084 1594.02,156.084L1449.71,156.084C1445.87,156.084 1443.09,159.221 1443.09,162.707L1443.09,393.464L1443.09,393.464Z" style="fill:white;fill-rule:nonzero;"/>
            <path d="M1698.24,393.464C1698.24,396.95 1701.03,400.087 1704.87,400.087L1746.35,400.087C1749.83,400.087 1752.97,396.95 1752.97,393.464L1752.97,282.268L1831.05,166.192C1833.84,161.661 1831.05,156.084 1825.47,156.084L1780.16,156.084C1777.02,156.084 1775.63,157.827 1774.58,159.221L1726.13,230.679L1677.68,159.221C1676.63,157.827 1674.89,156.084 1672.1,156.084L1626.79,156.084C1621.21,156.084 1618.42,161.661 1621.21,166.192L1698.24,282.617L1698.24,393.464L1698.24,393.464Z" style="fill:white;fill-rule:nonzero;"/>
            <path d="M1892.29,197.469L1898.78,197.469C1899.81,197.469 1901.11,196.431 1901.24,195.393L1903.58,181.641L1910.97,196.561C1911.36,197.339 1912.14,197.858 1913.18,197.858L1913.95,197.858C1915.12,197.858 1915.64,197.339 1916.03,196.69L1923.68,181.641L1925.89,195.263C1926.02,196.431 1927.19,197.469 1928.36,197.469L1935.1,197.469C1936.66,197.469 1937.83,196.171 1937.57,194.615L1930.69,156.991C1930.56,155.953 1929.39,155.045 1928.23,155.045L1927.71,155.045C1926.67,155.045 1926.02,155.434 1925.5,156.472L1913.57,178.787L1901.76,156.472C1901.24,155.564 1900.59,155.045 1899.56,155.045L1899.04,155.045C1897.61,155.045 1896.7,155.953 1896.57,156.991L1889.83,194.485C1889.57,196.042 1890.6,197.469 1892.29,197.469L1892.29,197.469ZM1867.25,197.469L1874.13,197.469C1875.42,197.469 1876.59,196.301 1876.59,195.004L1876.59,166.981L1884.38,166.981C1885.8,166.981 1886.84,165.943 1886.84,164.516L1886.84,158.158C1886.84,156.861 1885.8,155.693 1884.38,155.693L1857,155.693C1855.7,155.693 1854.54,156.861 1854.54,158.158C1854.54,158.158 1854.54,164.516 1854.54,164.516C1854.54,165.943 1855.7,166.981 1857,166.981L1864.79,166.981L1864.79,195.004C1864.79,196.301 1865.82,197.469 1867.25,197.469L1867.25,197.469Z" style="fill:white;fill-rule:nonzero;"/>
        </g>
    </g>
</svg>
