<?xml version="1.0" encoding="UTF-8" standalone="no"?>
<!DOCTYPE svg PUBLIC "-//W3C//DTD SVG 1.1//EN" "http://www.w3.org/Graphics/SVG/1.1/DTD/svg11.dtd">
<svg width="100%" height="100%" viewBox="0 0 1933 503" version="1.1" xmlns="http://www.w3.org/2000/svg" xmlns:xlink="http://www.w3.org/1999/xlink" xml:space="preserve" xmlns:serif="http://www.serif.com/" style="fill-rule:evenodd;clip-rule:evenodd;stroke-linejoin:round;stroke-miterlimit:2;">
    <g transform="matrix(1,0,0,1,-0.471764,-8036.2)">
        <g id="_1-1-Monotone-Dark" serif:id="1-1 Monotone Dark" transform="matrix(1.4936,0,0,0.814922,-5062.53,8036.2)">
            <rect x="3389.81" y="0" width="1293.66" height="616.859" style="fill:none;"/>
            <g transform="matrix(2.99151,0,0,6.96715,-7330.31,-1763.76)">
                <g transform="matrix(0.386582,0,0,0.304225,3583.41,-764.277)">
                    <g id="Cyborg-Version" serif:id="Cyborg Version">
                        <path d="M186.361,3543.3C187.249,3542.19 187.561,3540.73 187.202,3539.35C186.843,3537.98 185.856,3536.85 184.539,3536.32L159.859,3526.3C158.775,3525.86 157.561,3525.86 156.477,3526.3L131.896,3536.27C130.581,3536.8 129.594,3537.93 129.234,3539.3C128.874,3540.67 129.182,3542.13 130.066,3543.24L154.647,3574.13C155.499,3575.2 156.793,3575.82 158.162,3575.82C159.53,3575.83 160.826,3575.2 161.681,3574.14L186.361,3543.3ZM158.173,3502.29L101.057,3526.2C99.87,3526.7 98.527,3526.66 97.368,3526.1C96.208,3525.55 95.343,3524.52 94.991,3523.28L86.282,3492.68C85.66,3490.49 86.767,3488.18 88.862,3487.3L156.42,3458.82C157.537,3458.35 158.796,3458.35 159.914,3458.82L227.679,3487.35C229.773,3488.23 230.881,3490.54 230.262,3492.72L221.628,3523.23C221.278,3524.46 220.415,3525.49 219.258,3526.05C218.1,3526.61 216.758,3526.65 215.571,3526.16L158.173,3502.29ZM158.179,3434.83L64.675,3471.57C63.493,3472.04 62.17,3471.98 61.032,3471.42C59.894,3470.85 59.047,3469.83 58.7,3468.61L49.566,3436.42C48.93,3434.18 50.111,3431.82 52.289,3430.99L156.561,3391.14C157.596,3390.74 158.74,3390.74 159.775,3391.14L264,3430.99C266.176,3431.82 267.357,3434.18 266.723,3436.42L257.743,3468.15C257.398,3469.37 256.555,3470.39 255.421,3470.95C254.287,3471.52 252.967,3471.58 251.786,3471.12L158.179,3434.83Z" style="fill:white;"/>
                    </g>
                </g>
                <g transform="matrix(0.230393,0,0,0.18131,3257.02,-202.581)">
                    <g transform="matrix(338.614,0,0,338.614,1840.6,2901.33)">
                        <path d="M0.013,-0L0.123,-0C0.143,-0 0.154,-0.012 0.159,-0.024L0.195,-0.104L0.467,-0.104L0.503,-0.025C0.512,-0.006 0.52,-0 0.538,-0L0.649,-0C0.664,-0 0.672,-0.013 0.666,-0.026L0.353,-0.699C0.35,-0.705 0.343,-0.71 0.336,-0.71L0.326,-0.71C0.319,-0.71 0.312,-0.705 0.309,-0.699L-0.004,-0.026C-0.01,-0.013 -0.002,-0 0.013,-0ZM0.255,-0.24L0.33,-0.405L0.331,-0.405L0.407,-0.24L0.255,-0.24Z" style="fill:white;fill-rule:nonzero;"/>
                    </g>
                    <g transform="matrix(338.614,0,0,338.614,2072.45,2902.2)">
                        <path d="M0.042,-0.022C0.04,-0.009 0.049,-0 0.061,-0L0.179,-0C0.189,-0 0.197,-0.008 0.198,-0.016L0.242,-0.325L0.244,-0.325L0.413,-0.001C0.416,0.005 0.424,0.01 0.43,0.01L0.448,0.01C0.453,0.01 0.462,0.005 0.465,-0.001L0.633,-0.325L0.635,-0.325L0.68,-0.016C0.681,-0.008 0.69,-0 0.699,-0L0.817,-0C0.829,-0 0.838,-0.009 0.836,-0.022L0.723,-0.694C0.722,-0.703 0.713,-0.71 0.705,-0.71L0.689,-0.71C0.684,-0.71 0.675,-0.706 0.672,-0.7L0.44,-0.268L0.438,-0.268L0.206,-0.7C0.203,-0.706 0.194,-0.71 0.189,-0.71L0.173,-0.71C0.165,-0.71 0.156,-0.703 0.155,-0.694L0.042,-0.022Z" style="fill:white;fill-rule:nonzero;"/>
                    </g>
                    <g transform="matrix(338.614,0,0,338.614,2349.44,2902.2)">
                        <path d="M0.086,-0.019C0.086,-0.009 0.094,-0 0.105,-0L0.223,-0C0.233,-0 0.242,-0.009 0.242,-0.019L0.242,-0.254L0.347,-0.254C0.469,-0.254 0.57,-0.355 0.57,-0.479C0.57,-0.6 0.469,-0.7 0.346,-0.7L0.105,-0.7C0.094,-0.7 0.086,-0.691 0.086,-0.681L0.086,-0.019ZM0.242,-0.4L0.242,-0.553L0.337,-0.553C0.38,-0.553 0.416,-0.521 0.416,-0.479C0.416,-0.434 0.38,-0.4 0.337,-0.4L0.242,-0.4Z" style="fill:white;fill-rule:nonzero;"/>
                    </g>
                    <g transform="matrix(338.614,0,0,338.614,2534.32,2902.2)">
                        <path d="M0.086,-0.019C0.086,-0.009 0.094,-0 0.105,-0L0.481,-0C0.492,-0 0.5,-0.009 0.5,-0.019L0.5,-0.128C0.5,-0.138 0.492,-0.147 0.481,-0.147L0.243,-0.147L0.243,-0.681C0.243,-0.691 0.234,-0.7 0.224,-0.7L0.105,-0.7C0.094,-0.7 0.086,-0.691 0.086,-0.681L0.086,-0.019Z" style="fill:white;fill-rule:nonzero;"/>
                    </g>
                    <g transform="matrix(342.793,0,0,342.793,2700.67,2902.2)">
                        <path d="M0.086,-0.019C0.086,-0.009 0.095,-0 0.105,-0L0.225,-0C0.235,-0 0.244,-0.009 0.244,-0.019L0.244,-0.681C0.244,-0.691 0.235,-0.7 0.225,-0.7L0.105,-0.7C0.095,-0.7 0.086,-0.691 0.086,-0.681L0.086,-0.019Z" style="fill:white;fill-rule:nonzero;"/>
                    </g>
                    <g transform="matrix(338.614,0,0,338.614,2789.83,2902.2)">
                        <path d="M0.086,-0.019C0.086,-0.009 0.094,-0 0.105,-0L0.223,-0C0.233,-0 0.242,-0.009 0.242,-0.019L0.242,-0.262L0.47,-0.262C0.48,-0.262 0.489,-0.271 0.489,-0.281L0.489,-0.39C0.489,-0.4 0.48,-0.409 0.47,-0.409L0.242,-0.409L0.242,-0.553L0.519,-0.553C0.53,-0.553 0.538,-0.562 0.538,-0.572L0.538,-0.681C0.538,-0.691 0.53,-0.7 0.519,-0.7L0.105,-0.7C0.094,-0.7 0.086,-0.691 0.086,-0.681L0.086,-0.019Z" style="fill:white;fill-rule:nonzero;"/>
                    </g>
                    <g transform="matrix(338.614,0,0,338.614,2994.02,2902.2)">
                        <path d="M0.215,-0.019C0.215,-0.009 0.223,-0 0.234,-0L0.353,-0C0.363,-0 0.372,-0.009 0.372,-0.019L0.372,-0.338L0.596,-0.671C0.604,-0.684 0.596,-0.7 0.58,-0.7L0.45,-0.7C0.441,-0.7 0.437,-0.695 0.434,-0.691L0.295,-0.486L0.156,-0.691C0.153,-0.695 0.148,-0.7 0.14,-0.7L0.01,-0.7C-0.006,-0.7 -0.014,-0.684 -0.006,-0.671L0.215,-0.337L0.215,-0.019Z" style="fill:white;fill-rule:nonzero;"/>
                    </g>
                </g>
            </g>
        </g>
    </g>
</svg>
